<svg id="Layer_1" data-name="Layer 1" xmlns="http://www.w3.org/2000/svg" viewBox="0 0 1899.18 225.33"><defs><style>.cls-1{opacity:0.6;}.cls-2,.cls-3,.cls-4{fill:#fff;}.cls-3{opacity:0.5;}.cls-4{opacity:0.9;isolation:isolate;}</style></defs><title>Logo AslamMaulana</title><g class="cls-1"><path class="cls-2" d="M-2935.13,345.84v36l-8.15,41.67H-2970l21.72-111.74C-2939.79,318.78-2935.13,330.33-2935.13,345.84Z" transform="translate(4033 -236.34)"/><path class="cls-2" d="M-2774.71,258.87l-32,164.65h-26.71L-2809,298.71h-.23l-67.93,124.81h-21.65l-19.58-124.81h-.46l-6,30.72c-3.13-13.73-10.37-24.22-20.88-30.56l7.78-40h35.46l21.19,126.65h.46l70.7-126.65Z" transform="translate(4033 -236.34)"/><path class="cls-2" d="M-2670.15,344.53c6-31.08-12.21-41.91-38.69-41.91-35,0-52,16.81-57.57,41h23.26c4.37-15.2,13.12-21.87,33.16-21.87,15.43,0,18.65,5.75,17.27,13.35-2.3,11.29-14.51,14.05-34.08,18.42-30.17,6.68-49.74,13.36-54.35,36.62-4.14,22.34,8.29,36.85,32.93,36.85a57.44,57.44,0,0,0,41.68-17.28c.23,10.6,6.22,15.89,18.66,15.89a30.16,30.16,0,0,0,12.89-2.76l2.3-11.28c-9.67.92-10.13-2.54-8.52-10.83ZM-2701,378.16c-4.38,18.65-19.57,29.7-40.3,29.7-10.82,0-17.73-6.45-15.66-17.27,2.07-11.28,12.9-17,34.54-21.42,11.06-2.3,21-4.83,25.33-8.06Z" transform="translate(4033 -236.34)"/><path class="cls-2" d="M-2561,305.85-2575,376.77c-3.23,17.51-18.42,29.48-37.54,29.48-15.89,0-20-9.21-17-25.1l14.74-75.3h-24.41l-15.66,80.6c-5.3,26.94,9.9,40.53,32.47,40.53,19.8,0,33.16-8.76,41.22-18l.23-.46-3,15h24.18l23-117.67Z" transform="translate(4033 -236.34)"/><polygon class="cls-2" points="1527.96 22.53 1495.95 187.19 1520.37 187.19 1552.38 22.53 1527.96 22.53"/><path class="cls-2" d="M-2378.84,344.53c6-31.08-12.2-41.91-38.69-41.91-35,0-52,16.81-57.57,41h23.26c4.38-15.2,13.13-21.87,33.16-21.87,15.43,0,18.65,5.75,17.27,13.35-2.3,11.29-14.51,14.05-34.08,18.42-30.17,6.68-49.74,13.36-54.35,36.62-4.14,22.34,8.29,36.85,32.93,36.85a57.46,57.46,0,0,0,41.69-17.28c.22,10.6,6.21,15.89,18.65,15.89a30.16,30.16,0,0,0,12.89-2.76l2.31-11.28c-9.67.92-10.14-2.54-8.52-10.83Zm-30.86,33.63c-4.37,18.65-19.57,29.7-40.3,29.7-10.82,0-17.73-6.45-15.66-17.27,2.08-11.28,12.9-17,34.55-21.42,11.05-2.3,21-4.83,25.33-8.06Z" transform="translate(4033 -236.34)"/><path class="cls-2" d="M-2284.19,302.62c-19.57,0-33.16,8.52-41,17.73l-.46.69,3-15.19h-24.18l-23,117.67h24.18l14-70.93c3.46-17.5,18.42-29.47,37.77-29.47,15.66,0,19.8,9.21,16.81,25.33l-14.74,75.07h24.41l15.66-80.37C-2246.42,316.21-2261.62,302.62-2284.19,302.62Z" transform="translate(4033 -236.34)"/><path class="cls-2" d="M-2135,344.53c6-31.08-12.21-41.91-38.69-41.91-35,0-52,16.81-57.57,41H-2208c4.37-15.2,13.12-21.87,33.16-21.87,15.43,0,18.65,5.75,17.27,13.35-2.3,11.29-14.51,14.05-34.08,18.42-30.17,6.68-49.74,13.36-54.35,36.62-4.15,22.34,8.29,36.85,32.93,36.85a57.44,57.44,0,0,0,41.68-17.28c.23,10.6,6.22,15.89,18.65,15.89a30.17,30.17,0,0,0,12.9-2.76l2.3-11.28c-9.67.92-10.13-2.54-8.52-10.83Zm-30.86,33.63c-4.38,18.65-19.58,29.7-40.3,29.7-10.82,0-17.73-6.45-15.66-17.27,2.07-11.28,12.9-17,34.54-21.42,11.06-2.3,21-4.83,25.33-8.06Z" transform="translate(4033 -236.34)"/></g><path class="cls-3" d="M-3695,305.37V440.49a21.16,21.16,0,0,1-21.17,21.17h-70.32a21.16,21.16,0,0,1-21.17-21.17V370.17a21,21,0,0,0-.16-2.52,21.16,21.16,0,0,0-16.67-18.2,20.78,20.78,0,0,0-4.35-.45h-70.33c-.21,0-.42,0-.63,0l0,0,0,0a20.47,20.47,0,0,0-3.61.43,21.1,21.1,0,0,0-15.81,14.15,20.78,20.78,0,0,0-1,5.88l-.05,0c0,.21,0,.42,0,.64v70.32a21.08,21.08,0,0,1-.69,5.37,19.52,19.52,0,0,0,.4-3.92V368.43A19.42,19.42,0,0,0-3940.06,349h-1.45a21.16,21.16,0,0,0,21.17-21.17V257.51a21.05,21.05,0,0,1,3.42-11.53c.1-.16.2-.32.31-.48a21.29,21.29,0,0,1,10-7.8l.56-.2a20.89,20.89,0,0,1,6.92-1.16h132A77.61,77.61,0,0,1-3695,305.37Z" transform="translate(4033 -236.34)"/><path class="cls-4" d="M-3920.63,368.43v73.51a19.52,19.52,0,0,1-.4,3.92.19.19,0,0,1,0,.07,19.4,19.4,0,0,1-15,15l-.07,0a21.08,21.08,0,0,1-5.37.69h-70.32a21.49,21.49,0,0,1-4.64-.51h0A19.41,19.41,0,0,1-4033,441.94V368.43A19.42,19.42,0,0,1-4013.57,349h73.51A19.42,19.42,0,0,1-3920.63,368.43Z" transform="translate(4033 -236.34)"/><path class="cls-2" d="M-3427.85,411.66l-7.24-20.07L-3483,258.87h-41.46l-59.64,164.65h41.45l10.6-34.31h56.41l10.6,34.31h41.45Zm-94.74-54,18.65-60.8h.46l18.65,60.8Z" transform="translate(4033 -236.34)"/><path class="cls-2" d="M-3359.09,349.14c-18.19-3.92-25.56-4.15-25.56-12.44,0-5.75,5.3-9.44,15.66-9.44,12,0,17,5.07,18.19,14.51h34.55c-1.15-20.73-15.89-39.84-53.66-39.84-33.16,0-51.58,16.35-51.58,37.77,0,24.64,22.1,32,42.14,36.38,18.65,4.15,29.71,5.53,29.71,15.66,0,6.68-5.76,10.14-16.12,10.14-14.51,0-22.34-5.76-23.49-17.51h-34.55c1.16,23.95,17.27,42.84,59.42,42.84,32.7,0,51.58-13.59,51.58-38.46C-3312.8,362-3335.83,354.21-3359.09,349.14Z" transform="translate(4033 -236.34)"/><rect class="cls-2" x="732.64" y="22.53" width="36.85" height="164.65"/><path class="cls-2" d="M-3138.93,406V351.9c0-37.07-18.42-50-51.59-50-38.45,0-54.57,19.11-55.73,41.68h34.55c1.15-11.28,7.6-16.35,20.95-16.35,10.14,0,15,4.15,15,11.06,0,9.9-15,12.2-30.16,15.19-27.64,5.53-44.91,16.36-44.91,39.84,0,19.81,13.82,33.86,38.69,33.86,15.66,0,29.47-7.37,37.07-16.12h.46c0,8.29,4.61,16.12,21.19,16.12a58.19,58.19,0,0,0,21.42-3.69v-8.75C-3136.63,414.77-3138.93,412.24-3138.93,406Zm-36.85-25.56c0,11.28-7.6,21.42-23.49,21.42-9,0-14.73-4.15-14.73-13.82,0-7.37,4.83-13.36,19.34-16.58,8.52-1.85,14.28-3.46,18.88-5.3Z" transform="translate(4033 -236.34)"/><path class="cls-2" d="M-2935.13,343.84v79.68h-37.3V355.59c0-17.73-3.69-23.72-16.81-23.72-11.75,0-19.12,7.14-19.12,23.49v68.16h-36.84V355.59c0-17.73-3.69-23.72-16.81-23.72-11.52,0-19.12,7.14-19.12,23.49v68.16H-3118V305.62h36.84v17h.46a42.1,42.1,0,0,1,36.85-20.73c15.43,0,26.25,8.52,30.86,20.73h.46c10.13-11.75,20.49-20.73,39.61-20.73,10.06,0,18.38,2.69,24.62,7.85C-2939.79,316.78-2935.13,328.33-2935.13,343.84Z" transform="translate(4033 -236.34)"/></svg>